<?xml version="1.0" encoding="UTF-8"?>
<svg xmlns="http://www.w3.org/2000/svg" version="1.1" viewBox="0 0 24 24">
  <!-- Generator: Adobe Illustrator 29.5.1, SVG Export Plug-In . SVG Version: 2.1.0 Build 141)  -->
  <defs>
    <style>
      .st0 {
        display: none;
      }

      .st0, .st1, .st2 {
        fill: none;
      }

      .st0, .st2 {
        stroke: #000;
        stroke-linecap: round;
        stroke-linejoin: round;
        stroke-width: 2px;
      }
    </style>
  </defs>
  <g id="Layer_1">
    <path class="st1" d="M0,0h24v24H0V0Z"/>
    <path class="st2" d="M14,3v4c0,.6.4,1,1,1h4"/>
    <path class="st2" d="M5,12v-7c0-1.1.9-2,2-2h7l5,5v4"/>
    <path class="st0" d="M5,18h1.5c.8,0,1.5-.7,1.5-1.5s-.7-1.5-1.5-1.5h-1.5v6"/>
    <path class="st0" d="M17,18h2"/>
    <path class="st0" d="M20,15h-3v6"/>
    <path class="st0" d="M11,15v6h1c1.1,0,2-.9,2-2v-2c0-1.1-.9-2-2-2h-1Z"/>
  </g>
  <g id="Layer_2">
    <path class="st2" d="M5.8,15v6"/>
    <path class="st2" d="M16.7,15c.8,0,1.5.7,1.5,1.5v3c0,.8-.7,1.5-1.5,1.5s-1.5-.7-1.5-1.5v-3c0-.8.7-1.5,1.5-1.5Z"/>
    <path class="st2" d="M9.1,20.2c0,.4.3.8.8.8h1.2c.6,0,1-.4,1-1v-1c0-.6-.4-1-1-1h-1c-.6,0-1-.4-1-1v-1c0-.6.4-1,1-1h1.2c.4,0,.8.3.8.8"/>
  </g>
</svg>